<svg viewBox="0 0 164.86 36.83" xmlns="http://www.w3.org/2000/svg"><path d="m120.47 4.46-8.02 29.16h4.72l8.02-29.16zm7.69 0-8.03 29.16h3.04l8.02-29.16z" fill="#652082"/><path d="m12.88 17.27-1.8-.1c-1.14-.07-1.78-.1-1.49-1.13.2-.72.5-1.09 2.88-1.09 1.76 0 2.46 0 2.09 1.32h4.22l.16-.53c.97-3.54-2.09-3.59-5.69-3.59-4.31 0-7.03.24-8.04 3.91-1.01 3.68 1.39 3.66 5.38 3.88l.94.05c2.04.1 2.28.08 1.98 1.2-.29 1.07-.99 1.18-3.05 1.18s-2.75-.13-2.37-1.47h-4.24c-1.14 4.2 1.62 4.27 5.82 4.27 7.25 0 7.71-2.08 8.28-4.2.81-2.94-.26-3.42-5.07-3.69zm12.93-5.02-8.44 12.82h4.57l1.41-2.2h5.91l.26 2.2h4.48l-1.52-12.82h-6.68zm-.84 8.11 3.54-5.55h.04l.51 5.55zm11.65-8.11-.81 2.97h4.22l-2.68 9.84h4.39l2.68-9.84h4.52l1.2 9.84h2.79l7.51-11.53h.05l1.16 11.53h2.84l8.67-12.81h-1.93l-7.78 11.7h-.04l-1.21-11.7h-2.74l-7.63 11.7h-.04l-1.3-11.7zm41.36 0-9.49 12.82h1.96l2.02-2.71h8.33l.55 2.71h1.93l-2.66-12.82zm-4.68 8.9 5.73-7.71 1.56 7.71zm22.79-8.9h-7.6l-3.49 12.82h1.87l1.41-5.12h6c2.26 0 2.55.79 2.11 2.41l-.75 2.71h1.87l.92-3.4c.4-1.39-.2-2.21-2.02-2.31v-.04c2.7-.26 3.32-1.59 3.82-3.38.79-2.92-.57-3.69-4.13-3.69zm2.29 3.53c-.57 2.12-1.1 2.8-4 2.87h-5.76l1.38-5.13h5.75c2.94 0 3.08.61 2.61 2.25zm6 3.3h8.35l.33-1.19h-8.35l1.19-4.36h8.72l.35-1.28h-10.59l-3.49 12.81h10.58l.36-1.28h-8.72zm34.03-6.74-9.48 12.62h1.95l2.02-2.68h8.32l.55 2.68h1.93l-2.66-12.62zm-4.67 8.77 5.73-7.59 1.56 7.59h-7.28zm15.19-8.86-3.49 12.81h1.73l3.53-12.81z" fill="#fff"/></svg>